<?xml version="1.0" encoding="iso-8859-1"?>
<!-- Generator: Adobe Illustrator 16.0.0, SVG Export Plug-In . SVG Version: 6.00 Build 0)  -->
<!DOCTYPE svg PUBLIC "-//W3C//DTD SVG 1.1//EN" "http://www.w3.org/Graphics/SVG/1.1/DTD/svg11.dtd">
<svg version="1.1" id="Capa_1" xmlns="http://www.w3.org/2000/svg" xmlns:xlink="http://www.w3.org/1999/xlink" x="0px" y="0px"
	 width="358.397px" height="358.397px" viewBox="0 0 358.397 358.397" style="enable-background:new 0 0 358.397 358.397;"
	 xml:space="preserve">
<g>
	<g>
		<path d="M334.6,186.963c-21.191,1.305-49.056,22.493-75.92,34.646c-32.929,14.917-84.208,2.924-84.213,2.924
			c7.889-3.695,40.04-11.37,46.52-14.21c34.406-15.124,31.506-46.689,15.115-46.423c-21.662,0.344-34.365,5.679-77.576,11.552
			c-32.746,4.47-71.467,2.843-90.043,9.935C42.252,195.385,0,262.779,0,262.779l65.322,63.286c0,0,40.428-39.819,60.092-39.819
			c44.82,0,46.621-0.597,88.26-2.843c17.691-0.967,21.396-1.673,31.5-5.105c53.957-18.242,111.881-66.818,112.947-72.646
			C360.607,192.1,345.811,186.285,334.6,186.963z"/>
		<path d="M145.498,130.335c20.209,0,36.666-16.316,36.91-36.464h83.426v23.9c0,2.577,2.105,4.681,4.703,4.681h17.127
			c2.603,0,4.703-2.104,4.703-4.681v-10.406h22.723v10.406c0,2.577,2.103,4.681,4.703,4.681h17.164c2.59,0,4.693-2.104,4.693-4.681
			V73.458c0-2.598-2.104-4.701-4.693-4.701l-154.549,0.033c-0.244-20.145-16.701-36.458-36.91-36.458
			c-20.395,0-36.953,16.578-36.953,36.937v24.132C108.545,113.758,125.103,130.335,145.498,130.335z M130.179,69.269
			c0-8.445,6.855-15.314,15.318-15.314c8.43,0,15.316,6.869,15.316,15.314v24.132c0,8.446-6.887,15.312-15.316,15.312
			c-8.463,0-15.318-6.866-15.318-15.312V69.269z"/>
	</g>
</g>
<g>
</g>
<g>
</g>
<g>
</g>
<g>
</g>
<g>
</g>
<g>
</g>
<g>
</g>
<g>
</g>
<g>
</g>
<g>
</g>
<g>
</g>
<g>
</g>
<g>
</g>
<g>
</g>
<g>
</g>
</svg>
